<mxfile host="65bd71144e">
    <diagram id="MuZAtRpMIBstmGgHcjIb" name="Page-1">
        <mxGraphModel dx="897" dy="614" grid="1" gridSize="10" guides="1" tooltips="1" connect="1" arrows="1" fold="1" page="1" pageScale="1" pageWidth="850" pageHeight="1100" math="0" shadow="0">
            <root>
                <mxCell id="0"/>
                <mxCell id="1" parent="0"/>
                <mxCell id="162" value="" style="endArrow=none;html=1;" parent="1" edge="1">
                    <mxGeometry width="50" height="50" relative="1" as="geometry">
                        <mxPoint x="600" y="870" as="sourcePoint"/>
                        <mxPoint x="610" y="80" as="targetPoint"/>
                    </mxGeometry>
                </mxCell>
                <mxCell id="167" value="" style="endArrow=none;html=1;" parent="1" edge="1">
                    <mxGeometry width="50" height="50" relative="1" as="geometry">
                        <mxPoint x="200" y="870" as="sourcePoint"/>
                        <mxPoint x="200" y="80" as="targetPoint"/>
                    </mxGeometry>
                </mxCell>
                <mxCell id="8" value="&lt;span&gt;Sơ đồ&amp;nbsp;&lt;/span&gt;activity của hệ thống mượn xe đi công tác (mở rộng 2) xe hoặc tài xế bận (fleet_business_trip_priority)&amp;nbsp;" style="text;html=1;align=center;verticalAlign=middle;resizable=0;points=[];autosize=1;strokeColor=none;fillColor=none;fontStyle=1" parent="1" vertex="1">
                    <mxGeometry x="40" y="40" width="640" height="20" as="geometry"/>
                </mxCell>
                <mxCell id="40" value="Creator" style="rounded=1;whiteSpace=wrap;html=1;strokeWidth=2;dashed=1;" parent="1" vertex="1">
                    <mxGeometry x="650" y="80" width="100" height="40" as="geometry"/>
                </mxCell>
                <mxCell id="41" value="Captain" style="rounded=1;whiteSpace=wrap;html=1;strokeWidth=2;dashed=1;" parent="1" vertex="1">
                    <mxGeometry x="350" y="80" width="100" height="40" as="geometry"/>
                </mxCell>
                <mxCell id="100" value="" style="ellipse;html=1;shape=startState;fillColor=#000000;strokeColor=#ff0000;dashed=1;" parent="1" vertex="1">
                    <mxGeometry x="385" y="140" width="30" height="30" as="geometry"/>
                </mxCell>
                <mxCell id="101" value="" style="edgeStyle=orthogonalEdgeStyle;html=1;verticalAlign=bottom;endArrow=open;endSize=8;strokeColor=#ff0000;" parent="1" source="100" target="184" edge="1">
                    <mxGeometry relative="1" as="geometry">
                        <mxPoint x="400" y="180" as="targetPoint"/>
                        <mxPoint x="400" y="210" as="sourcePoint"/>
                    </mxGeometry>
                </mxCell>
                <mxCell id="141" style="edgeStyle=none;html=1;" parent="1" source="137" target="143" edge="1">
                    <mxGeometry relative="1" as="geometry">
                        <mxPoint x="400" y="417.5" as="targetPoint"/>
                    </mxGeometry>
                </mxCell>
                <mxCell id="137" value="Trưởng đội xe Cập nhật và phân công xe/ tài xế thay thế" style="rounded=0;whiteSpace=wrap;html=1;" parent="1" vertex="1">
                    <mxGeometry x="340" y="320" width="120" height="60" as="geometry"/>
                </mxCell>
                <mxCell id="147" value="[Xe gặp sự cố]" style="edgeStyle=none;html=1;" parent="1" source="143" target="146" edge="1">
                    <mxGeometry x="-0.4667" y="-10" relative="1" as="geometry">
                        <Array as="points">
                            <mxPoint x="270" y="440"/>
                        </Array>
                        <mxPoint as="offset"/>
                    </mxGeometry>
                </mxCell>
                <mxCell id="150" value="[Tài xế gặp sự cố]" style="edgeStyle=none;html=1;" parent="1" source="143" target="148" edge="1">
                    <mxGeometry x="-0.3333" y="10" relative="1" as="geometry">
                        <Array as="points">
                            <mxPoint x="530" y="440"/>
                        </Array>
                        <mxPoint as="offset"/>
                    </mxGeometry>
                </mxCell>
                <mxCell id="151" value="[Xe và tài xế gặp sự cố]" style="edgeStyle=none;html=1;" parent="1" source="143" target="149" edge="1">
                    <mxGeometry relative="1" as="geometry">
                        <mxPoint as="offset"/>
                    </mxGeometry>
                </mxCell>
                <mxCell id="143" value="" style="rhombus;whiteSpace=wrap;html=1;" parent="1" vertex="1">
                    <mxGeometry x="380" y="420" width="40" height="40" as="geometry"/>
                </mxCell>
                <mxCell id="155" style="edgeStyle=none;html=1;entryX=0;entryY=0.5;entryDx=0;entryDy=0;" parent="1" source="146" target="152" edge="1">
                    <mxGeometry relative="1" as="geometry">
                        <Array as="points">
                            <mxPoint x="270" y="650"/>
                        </Array>
                    </mxGeometry>
                </mxCell>
                <mxCell id="146" value="Cập nhật tình trạng và phân xe khác cùng model" style="whiteSpace=wrap;html=1;" parent="1" vertex="1">
                    <mxGeometry x="220" y="520" width="100" height="50" as="geometry"/>
                </mxCell>
                <mxCell id="154" style="edgeStyle=none;html=1;entryX=1;entryY=0.5;entryDx=0;entryDy=0;" parent="1" source="148" target="152" edge="1">
                    <mxGeometry relative="1" as="geometry">
                        <Array as="points">
                            <mxPoint x="530" y="650"/>
                        </Array>
                    </mxGeometry>
                </mxCell>
                <mxCell id="148" value="Cập nhật tình trạng và phân tài xế mới" style="whiteSpace=wrap;html=1;" parent="1" vertex="1">
                    <mxGeometry x="480" y="520" width="100" height="50" as="geometry"/>
                </mxCell>
                <mxCell id="153" style="edgeStyle=none;html=1;" parent="1" source="149" target="152" edge="1">
                    <mxGeometry relative="1" as="geometry"/>
                </mxCell>
                <mxCell id="149" value="Xe và tài xế gặp sự cố" style="whiteSpace=wrap;html=1;" parent="1" vertex="1">
                    <mxGeometry x="350" y="520" width="100" height="50" as="geometry"/>
                </mxCell>
                <mxCell id="157" value="[Phân việc thành công]" style="edgeStyle=none;html=1;" parent="1" source="152" target="156" edge="1">
                    <mxGeometry x="-0.0528" y="10" relative="1" as="geometry">
                        <Array as="points">
                            <mxPoint x="440" y="720"/>
                        </Array>
                        <mxPoint as="offset"/>
                    </mxGeometry>
                </mxCell>
                <mxCell id="165" value="" style="edgeStyle=none;html=1;endArrow=classic;endFill=1;" parent="1" source="152" target="164" edge="1">
                    <mxGeometry relative="1" as="geometry">
                        <Array as="points">
                            <mxPoint x="360" y="720"/>
                        </Array>
                    </mxGeometry>
                </mxCell>
                <mxCell id="166" value="[Phân việc không thành công]" style="edgeLabel;html=1;align=center;verticalAlign=middle;resizable=0;points=[];" parent="165" vertex="1" connectable="0">
                    <mxGeometry x="-0.1641" y="2" relative="1" as="geometry">
                        <mxPoint x="-35" y="-12" as="offset"/>
                    </mxGeometry>
                </mxCell>
                <mxCell id="152" value="" style="rhombus;whiteSpace=wrap;html=1;" parent="1" vertex="1">
                    <mxGeometry x="380" y="630" width="40" height="40" as="geometry"/>
                </mxCell>
                <mxCell id="172" style="edgeStyle=none;html=1;endArrow=classic;endFill=1;" parent="1" source="156" target="171" edge="1">
                    <mxGeometry relative="1" as="geometry"/>
                </mxCell>
                <mxCell id="156" value="Nhân viên tạo chuyến xem lại thông tin và duyệt lần cuối" style="whiteSpace=wrap;html=1;" parent="1" vertex="1">
                    <mxGeometry x="640" y="690" width="120" height="60" as="geometry"/>
                </mxCell>
                <mxCell id="159" style="edgeStyle=none;html=1;endArrow=none;endFill=0;dashed=1;" parent="1" source="158" edge="1">
                    <mxGeometry relative="1" as="geometry">
                        <mxPoint x="600" y="720" as="targetPoint"/>
                    </mxGeometry>
                </mxCell>
                <mxCell id="158" value="Gửi mail nhân viên tạo" style="shape=note;size=15;align=left;spacingLeft=10;html=1;whiteSpace=wrap;rounded=0;dashed=1;labelBackgroundColor=none;fontSize=10;fontColor=default;strokeWidth=2;" parent="1" vertex="1">
                    <mxGeometry x="482.5" y="660" width="135" height="30" as="geometry"/>
                </mxCell>
                <mxCell id="160" style="edgeStyle=none;html=1;exitX=0.5;exitY=1;exitDx=0;exitDy=0;entryX=1;entryY=1;entryDx=0;entryDy=0;dashed=1;endArrow=none;endFill=0;" parent="1" source="152" target="152" edge="1">
                    <mxGeometry relative="1" as="geometry"/>
                </mxCell>
                <mxCell id="163" value="Admin" style="rounded=1;whiteSpace=wrap;html=1;strokeWidth=2;dashed=1;" parent="1" vertex="1">
                    <mxGeometry x="60" y="80" width="100" height="40" as="geometry"/>
                </mxCell>
                <mxCell id="170" value="[Yêu cầu phân công lại]" style="edgeStyle=none;html=1;endArrow=classic;endFill=1;startArrow=none;" parent="1" source="186" target="137" edge="1">
                    <mxGeometry x="-0.1538" y="-10" relative="1" as="geometry">
                        <Array as="points">
                            <mxPoint x="100" y="350"/>
                        </Array>
                        <mxPoint as="offset"/>
                    </mxGeometry>
                </mxCell>
                <mxCell id="164" value="&lt;span style=&quot;font-size: 11px&quot;&gt;Văn phòng duyệt chuyến công tác&lt;/span&gt;" style="whiteSpace=wrap;html=1;" parent="1" vertex="1">
                    <mxGeometry x="40" y="690" width="120" height="60" as="geometry"/>
                </mxCell>
                <mxCell id="168" value="Gửi mail văn phòng" style="shape=note;size=15;align=left;spacingLeft=10;html=1;whiteSpace=wrap;rounded=0;dashed=1;labelBackgroundColor=none;fontSize=10;fontColor=default;strokeWidth=2;" parent="1" vertex="1">
                    <mxGeometry x="185" y="660" width="135" height="30" as="geometry"/>
                </mxCell>
                <mxCell id="169" style="edgeStyle=none;html=1;endArrow=none;endFill=0;dashed=1;exitX=0.292;exitY=1.043;exitDx=0;exitDy=0;exitPerimeter=0;" parent="1" source="168" edge="1">
                    <mxGeometry relative="1" as="geometry">
                        <mxPoint x="180" y="720" as="targetPoint"/>
                        <mxPoint x="199.99666666666673" y="720" as="sourcePoint"/>
                    </mxGeometry>
                </mxCell>
                <mxCell id="173" value="[Không chấp thuận]" style="edgeStyle=none;html=1;endArrow=classic;endFill=1;" parent="1" source="171" target="137" edge="1">
                    <mxGeometry x="-0.8776" relative="1" as="geometry">
                        <Array as="points">
                            <mxPoint x="700" y="350"/>
                        </Array>
                        <mxPoint as="offset"/>
                    </mxGeometry>
                </mxCell>
                <mxCell id="175" value="" style="edgeStyle=none;html=1;endArrow=classic;endFill=1;" parent="1" source="171" target="174" edge="1">
                    <mxGeometry relative="1" as="geometry"/>
                </mxCell>
                <mxCell id="176" value="[Chấp thuận]" style="edgeLabel;html=1;align=center;verticalAlign=middle;resizable=0;points=[];" parent="175" vertex="1" connectable="0">
                    <mxGeometry x="-0.3625" y="-2" relative="1" as="geometry">
                        <mxPoint x="4" y="8" as="offset"/>
                    </mxGeometry>
                </mxCell>
                <mxCell id="171" value="" style="rhombus;whiteSpace=wrap;html=1;" parent="1" vertex="1">
                    <mxGeometry x="680" y="600" width="40" height="40" as="geometry"/>
                </mxCell>
                <mxCell id="178" value="" style="edgeStyle=none;html=1;endArrow=classic;endFill=1;" parent="1" source="174" target="177" edge="1">
                    <mxGeometry relative="1" as="geometry"/>
                </mxCell>
                <mxCell id="174" value="Thông tin xe hoặc tài xế mới được cập nhật vào hệ thống" style="whiteSpace=wrap;html=1;" parent="1" vertex="1">
                    <mxGeometry x="800" y="590" width="120" height="60" as="geometry"/>
                </mxCell>
                <mxCell id="177" value="Gửi mail các thông tin cập nhật đến tất cả nhân viên và tài xế liên quan (cũ và mới)" style="whiteSpace=wrap;html=1;" parent="1" vertex="1">
                    <mxGeometry x="800" y="780" width="120" height="60" as="geometry"/>
                </mxCell>
                <mxCell id="179" value="&lt;span&gt;Hỗ trợ trực tiếp nhân viên &lt;br&gt;và tài xế của chuyến&lt;br&gt;&amp;nbsp;công tác được sửa&lt;/span&gt;" style="text;html=1;align=center;verticalAlign=middle;resizable=0;points=[];autosize=1;strokeColor=none;fillColor=none;" parent="1" vertex="1">
                    <mxGeometry x="25" y="825" width="150" height="50" as="geometry"/>
                </mxCell>
                <mxCell id="180" value="" style="edgeStyle=orthogonalEdgeStyle;html=1;verticalAlign=bottom;endArrow=open;endSize=8;strokeColor=#ff0000;" parent="1" source="177" target="181" edge="1">
                    <mxGeometry relative="1" as="geometry">
                        <mxPoint x="112.5" y="810" as="targetPoint"/>
                        <mxPoint x="197.5" y="815" as="sourcePoint"/>
                    </mxGeometry>
                </mxCell>
                <mxCell id="182" value="" style="edgeStyle=none;html=1;endArrow=classic;endFill=1;" parent="1" source="181" edge="1">
                    <mxGeometry relative="1" as="geometry">
                        <mxPoint x="100" y="825" as="targetPoint"/>
                    </mxGeometry>
                </mxCell>
                <mxCell id="181" value="" style="ellipse;html=1;shape=endState;fillColor=#000000;strokeColor=#ff0000;dashed=1;" parent="1" vertex="1">
                    <mxGeometry x="85" y="795" width="30" height="30" as="geometry"/>
                </mxCell>
                <mxCell id="185" style="edgeStyle=none;html=1;" parent="1" source="184" target="137" edge="1">
                    <mxGeometry relative="1" as="geometry"/>
                </mxCell>
                <mxCell id="184" value="&lt;span&gt;Trưởng đội xe Cập nhật tình trạng là xe hoặc tài xế gặp sự cố&lt;/span&gt;" style="rounded=0;whiteSpace=wrap;html=1;" parent="1" vertex="1">
                    <mxGeometry x="340" y="220" width="120" height="60" as="geometry"/>
                </mxCell>
                <mxCell id="191" value="[Không chấp thuận chuyến]" style="edgeStyle=none;html=1;endArrow=classic;endFill=1;" parent="1" source="186" target="189" edge="1">
                    <mxGeometry x="-0.2" relative="1" as="geometry">
                        <mxPoint as="offset"/>
                    </mxGeometry>
                </mxCell>
                <mxCell id="186" value="" style="rhombus;whiteSpace=wrap;html=1;" parent="1" vertex="1">
                    <mxGeometry x="80" y="330" width="40" height="40" as="geometry"/>
                </mxCell>
                <mxCell id="187" value="" style="edgeStyle=none;html=1;endArrow=classic;endFill=1;" parent="1" source="164" target="186" edge="1">
                    <mxGeometry relative="1" as="geometry">
                        <Array as="points"/>
                        <mxPoint x="100" y="690" as="sourcePoint"/>
                        <mxPoint x="340" y="350" as="targetPoint"/>
                    </mxGeometry>
                </mxCell>
                <mxCell id="188" value="" style="ellipse;html=1;shape=startState;fillColor=#000000;strokeColor=#ff0000;dashed=1;" parent="1" vertex="1">
                    <mxGeometry x="85" y="140" width="30" height="30" as="geometry"/>
                </mxCell>
                <mxCell id="189" value="Yêu cầu nhân viên quyệt định tiếp, theo sơ đồ nền" style="whiteSpace=wrap;html=1;rounded=0;fontSize=11;" parent="1" vertex="1">
                    <mxGeometry x="30" y="217.69" width="140" height="64.62" as="geometry"/>
                </mxCell>
                <mxCell id="190" value="" style="edgeStyle=orthogonalEdgeStyle;html=1;verticalAlign=bottom;endArrow=open;endSize=8;strokeColor=#ff0000;" parent="1" source="189" target="188" edge="1">
                    <mxGeometry relative="1" as="geometry">
                        <mxPoint x="120" y="220" as="targetPoint"/>
                        <mxPoint x="120" y="170" as="sourcePoint"/>
                    </mxGeometry>
                </mxCell>
                <mxCell id="194" style="edgeStyle=none;html=1;entryX=1;entryY=0.5;entryDx=0;entryDy=0;endArrow=none;endFill=0;dashed=1;" parent="1" source="196" target="189" edge="1">
                    <mxGeometry relative="1" as="geometry">
                        <mxPoint x="209.34210526315792" y="185" as="sourcePoint"/>
                    </mxGeometry>
                </mxCell>
                <mxCell id="196" value="&lt;span style=&quot;text-align: center&quot;&gt;Xem sơ đồ activity&amp;nbsp;&lt;/span&gt;&lt;span style=&quot;text-align: center ; font-weight: 700&quot;&gt;fleet_business_trip&lt;/span&gt;" style="shape=note;size=15;align=left;spacingLeft=10;html=1;whiteSpace=wrap;" parent="1" vertex="1">
                    <mxGeometry x="177.5" y="150" width="172.5" height="40" as="geometry"/>
                </mxCell>
            </root>
        </mxGraphModel>
    </diagram>
</mxfile>